<svg width="15" height="15" viewBox="0 0 15 15" fill="none" xmlns="http://www.w3.org/2000/svg">
<path d="M9.22077 9.73572H5.9705" stroke="#27373D" stroke-miterlimit="10" stroke-linecap="round" stroke-linejoin="round"/>
<path d="M7.59564 8.14929V11.3996" stroke="#27373D" stroke-miterlimit="10" stroke-linecap="round" stroke-linejoin="round"/>
<path d="M8.17954 1.33682L8.16004 1.38232L6.27489 5.75718H4.42224C3.9802 5.75718 3.55766 5.84819 3.17413 6.0107L4.31173 3.29348L4.33773 3.22847L4.38323 3.12446C4.39623 3.08546 4.40923 3.04646 4.42874 3.01395C5.28031 1.04429 6.24238 0.595755 8.17954 1.33682Z" stroke="#27373D" stroke-linecap="round" stroke-linejoin="round"/>
<path d="M11.6833 5.88714C11.3908 5.79613 11.0788 5.75712 10.7668 5.75712H6.27489L8.16004 1.38227L8.17954 1.33676C8.27705 1.36926 8.36806 1.41477 8.46557 1.45377L9.90218 2.05832C10.7018 2.38985 11.2608 2.73438 11.5988 3.15041C11.6638 3.22842 11.7158 3.29992 11.7613 3.38443C11.8198 3.47544 11.8653 3.56644 11.8913 3.66395C11.9174 3.72246 11.9369 3.78096 11.9499 3.83297C12.1254 4.37901 12.0214 5.04857 11.6833 5.88714Z" stroke="#27373D" stroke-linecap="round" stroke-linejoin="round"/>
<path d="M13.9402 8.92958V10.1972C13.9402 10.3272 13.9337 10.4572 13.9272 10.5872C13.8036 12.8559 12.536 14 10.1308 14H5.06043C4.90441 14 4.7484 13.987 4.59889 13.9675C2.53172 13.831 1.42663 12.7259 1.29012 10.6587C1.27062 10.5092 1.25761 10.3532 1.25761 10.1972V8.92958C1.25761 7.62298 2.05068 6.49839 3.18177 6.01085C3.5718 5.84833 3.98784 5.75732 4.42987 5.75732H10.7744C11.0929 5.75732 11.4049 5.80283 11.691 5.88734C12.9846 6.28387 13.9402 7.49297 13.9402 8.92958Z" stroke="#27373D" stroke-linecap="round" stroke-linejoin="round"/>
<path d="M4.31175 3.29343L3.17416 6.01065C2.04306 6.49819 1.25 7.62278 1.25 8.92939V7.02473C1.25 5.17858 2.56311 3.63795 4.31175 3.29343Z" stroke="#27373D" stroke-linecap="round" stroke-linejoin="round"/>
<path d="M13.9381 7.02447V8.92913C13.9381 7.49901 12.9891 6.28341 11.6889 5.89338C12.027 5.04831 12.1245 4.38526 11.962 3.83271C11.949 3.77421 11.9295 3.7157 11.9035 3.6637C13.1126 4.28775 13.9381 5.56835 13.9381 7.02447Z" stroke="#27373D" stroke-linecap="round" stroke-linejoin="round"/>
</svg>
