<svg width="21" height="23" viewBox="0 0 21 23" fill="none" xmlns="http://www.w3.org/2000/svg">
<path d="M9.59009 11.5C12.3515 11.5 14.5901 9.26142 14.5901 6.5C14.5901 3.73858 12.3515 1.5 9.59009 1.5C6.82866 1.5 4.59009 3.73858 4.59009 6.5C4.59009 9.26142 6.82866 11.5 9.59009 11.5Z" stroke="#27373D" stroke-width="1.5" stroke-linecap="round" stroke-linejoin="round"/>
<path d="M1 21.5C1 17.63 4.85 14.5 9.59 14.5C10.55 14.5 11.48 14.63 12.35 14.87" stroke="#27373D" stroke-width="1.5" stroke-linecap="round" stroke-linejoin="round"/>
<path d="M19.5901 17.5C19.5901 17.82 19.5501 18.13 19.4701 18.43C19.3801 18.83 19.2201 19.22 19.0101 19.56C18.3201 20.72 17.0501 21.5 15.5901 21.5C14.5601 21.5 13.6301 21.11 12.9301 20.47C12.6301 20.21 12.3701 19.9 12.1701 19.56C11.8001 18.96 11.5901 18.25 11.5901 17.5C11.5901 16.42 12.0201 15.43 12.7201 14.71C13.4501 13.96 14.4701 13.5 15.5901 13.5C16.7701 13.5 17.8401 14.01 18.5601 14.83C19.2001 15.54 19.5901 16.48 19.5901 17.5Z" stroke="#27373D" stroke-width="1.5" stroke-miterlimit="10" stroke-linecap="round" stroke-linejoin="round"/>
<path d="M17.0801 17.48H14.1001" stroke="#27373D" stroke-width="1.5" stroke-miterlimit="10" stroke-linecap="round" stroke-linejoin="round"/>
<path d="M15.5901 16.02V19.01" stroke="#27373D" stroke-width="1.5" stroke-miterlimit="10" stroke-linecap="round" stroke-linejoin="round"/>
</svg>
