<svg width="15" height="15" viewBox="0 0 15 15" fill="none" xmlns="http://www.w3.org/2000/svg">
<path d="M13.6321 3.52642V5.0549C13.6321 6.05283 13.0005 6.68444 12.0026 6.68444H9.84247V2.26952C9.84247 1.56844 10.4172 1 11.1183 1C11.8068 1.00632 12.4384 1.28422 12.8931 1.73898C13.3479 2.20005 13.6321 2.83165 13.6321 3.52642Z" stroke="#27373D" stroke-miterlimit="10" stroke-linecap="round" stroke-linejoin="round"/>
<path d="M1 4.15802V13.0005C1 13.5247 1.59371 13.8216 2.01057 13.5058L3.09061 12.6973C3.34325 12.5078 3.69695 12.5331 3.92433 12.7605L4.97279 13.8153C5.21912 14.0616 5.62334 14.0616 5.86967 13.8153L6.93077 12.7542C7.15183 12.5331 7.50553 12.5078 7.75185 12.6973L8.8319 13.5058C9.24875 13.8153 9.84246 13.5184 9.84246 13.0005V2.26321C9.84246 1.56844 10.4109 1 11.1057 1H4.15802H3.52642C1.6316 1 1 2.13057 1 3.52642V4.15802Z" stroke="#27373D" stroke-miterlimit="10" stroke-linecap="round" stroke-linejoin="round"/>
<path d="M3.42123 5.42755H7.42123" stroke="#27373D" stroke-linecap="round" stroke-linejoin="round"/>
</svg>
