<svg width="11" height="15" viewBox="0 0 11 15" fill="none" xmlns="http://www.w3.org/2000/svg">
<path d="M5.74322 6.57143C5.68048 6.56515 5.60519 6.56515 5.53617 6.57143C4.04293 6.52118 2.85712 5.29634 2.85712 3.78885C2.85712 2.24996 4.09939 1 5.64283 1C7.17999 1 8.42855 2.24996 8.42855 3.78885C8.42227 5.29634 7.23646 6.52118 5.74322 6.57143Z" stroke="#27373D" stroke-linecap="round" stroke-linejoin="round"/>
<path d="M2.2356 9.3154C0.588134 10.3622 0.588134 12.068 2.2356 13.1083C4.10772 14.2972 7.178 14.2972 9.05011 13.1083C10.6976 12.0615 10.6976 10.3557 9.05011 9.3154C7.1848 8.13294 4.11453 8.13294 2.2356 9.3154Z" stroke="#27373D" stroke-linecap="round" stroke-linejoin="round"/>
</svg>
