<svg width="14" height="14" viewBox="0 0 14 14" fill="none" xmlns="http://www.w3.org/2000/svg">
<path d="M12.5224 6.80344V3.91607C12.5224 1.18457 11.8853 0.5 9.32326 0.5H4.19917C1.63712 0.5 1 1.18457 1 3.91607V11.548C1 13.3509 1.98958 13.7779 3.18927 12.4901L3.19603 12.4833C3.75182 11.8936 4.59906 11.9411 5.08029 12.585L5.76486 13.5" stroke="#292D32" stroke-linecap="round" stroke-linejoin="round"/>
<path d="M4.05005 3.88895H9.47237" stroke="#292D32" stroke-linecap="round" stroke-linejoin="round"/>
<path d="M4.72784 6.60011H8.79458" stroke="#292D32" stroke-linecap="round" stroke-linejoin="round"/>
<path d="M10.971 9.15556L8.57161 11.5549C8.47672 11.6498 8.3886 11.8261 8.36826 11.9548L8.23948 12.8699C8.19204 13.202 8.42249 13.4324 8.75461 13.385L9.66963 13.2562C9.79841 13.2359 9.98141 13.1477 10.0695 13.0529L12.4689 10.6535C12.8824 10.24 13.0789 9.75881 12.4689 9.1488C11.8657 8.54557 11.3844 8.74211 10.971 9.15556Z" stroke="#292D32" stroke-miterlimit="10" stroke-linecap="round" stroke-linejoin="round"/>
<path d="M10.6241 9.50124C10.8274 10.2332 11.3968 10.8026 12.1288 11.0059" stroke="#292D32" stroke-miterlimit="10" stroke-linecap="round" stroke-linejoin="round"/>
</svg>
