<svg width="15" height="15" viewBox="0 0 15 15" fill="none" xmlns="http://www.w3.org/2000/svg">
<path d="M5.875 8.6375C5.875 9.268 6.36251 9.775 6.96051 9.775H8.18249C8.70249 9.775 9.125 9.333 9.125 8.7805C9.125 8.189 8.86501 7.97451 8.48151 7.83801L6.525 7.1555C6.1415 7.019 5.88151 6.81101 5.88151 6.21301C5.88151 5.66701 6.30399 5.21851 6.82399 5.21851H8.046C8.644 5.21851 9.13151 5.72551 9.13151 6.35601" stroke="#27373D" stroke-linecap="round" stroke-linejoin="round"/>
<path d="M7.5 4.575V10.425" stroke="#27373D" stroke-linecap="round" stroke-linejoin="round"/>
<path d="M14 7.5C14 11.088 11.088 14 7.5 14C3.912 14 1 11.088 1 7.5C1 3.912 3.912 1 7.5 1" stroke="#27373D" stroke-linecap="round" stroke-linejoin="round"/>
<path d="M10.75 1.64999V4.24999H13.35" stroke="#27373D" stroke-linecap="round" stroke-linejoin="round"/>
<path d="M14 1L10.75 4.25" stroke="#27373D" stroke-linecap="round" stroke-linejoin="round"/>
</svg>
