<svg width="17" height="15" viewBox="0 0 17 15" fill="none" xmlns="http://www.w3.org/2000/svg">
<path d="M8.94447 8.58334C9.94165 8.58334 10.75 7.77497 10.75 6.77778C10.75 5.7806 9.94165 4.97223 8.94447 4.97223C7.94729 4.97223 7.13892 5.7806 7.13892 6.77778C7.13892 7.77497 7.94729 8.58334 8.94447 8.58334Z" stroke="#27373D" stroke-miterlimit="10" stroke-linecap="round" stroke-linejoin="round"/>
<path d="M13.6389 4.97223V8.58334" stroke="#27373D" stroke-miterlimit="10" stroke-linecap="round" stroke-linejoin="round"/>
<path d="M6.77778 11.1111C6.77778 11.6528 6.62612 12.1656 6.3589 12.5989C5.86057 13.4367 4.94333 14 3.88889 14C2.83444 14 1.91721 13.4367 1.41888 12.5989C1.15166 12.1656 1 11.6528 1 11.1111C1 9.51501 2.29278 8.22223 3.88889 8.22223C5.485 8.22223 6.77778 9.51501 6.77778 11.1111Z" stroke="#27373D" stroke-miterlimit="10" stroke-linecap="round" stroke-linejoin="round"/>
<path d="M4.96617 11.0963H2.81396" stroke="#27373D" stroke-miterlimit="10" stroke-linecap="round" stroke-linejoin="round"/>
<path d="M3.88892 10.0419V12.2013" stroke="#27373D" stroke-miterlimit="10" stroke-linecap="round" stroke-linejoin="round"/>
<path d="M1.72217 9.1611V4.61111C1.72217 2.08333 3.16661 1 5.33328 1H12.5555C14.7222 1 16.1666 2.08333 16.1666 4.61111V8.94444C16.1666 11.4722 14.7222 12.5556 12.5555 12.5556H6.41661" stroke="#27373D" stroke-miterlimit="10" stroke-linecap="round" stroke-linejoin="round"/>
</svg>
