<svg width="15" height="15" viewBox="0 0 15 15" fill="none" xmlns="http://www.w3.org/2000/svg">
<path d="M14 11.5701C14 11.8041 13.9479 12.0446 13.8373 12.2786C13.7266 12.5126 13.5834 12.7336 13.3946 12.9416C13.0756 13.2926 12.7241 13.5461 12.327 13.7086C11.9364 13.8711 11.5133 13.9556 11.0576 13.9556C10.3936 13.9556 9.68403 13.7996 8.9354 13.4811C8.18678 13.1626 7.43816 12.7336 6.69604 12.1941C5.94742 11.6481 5.23786 11.0436 4.56084 10.3741C3.89034 9.69811 3.28493 8.98961 2.74462 8.24861C2.21082 7.50761 1.78117 6.76661 1.4687 6.03211C1.15623 5.29111 1 4.58261 1 3.90661C1 3.46461 1.07812 3.04211 1.23435 2.65211C1.39059 2.25561 1.63796 1.89161 1.98297 1.56661C2.3996 1.15711 2.85528 0.955612 3.33701 0.955612C3.51928 0.955612 3.70155 0.994612 3.8643 1.07261C4.03355 1.15061 4.18328 1.26761 4.30045 1.43661L5.81072 3.56211C5.92789 3.72461 6.01252 3.87411 6.07111 4.01711C6.12969 4.15361 6.16224 4.29011 6.16224 4.41361C6.16224 4.56961 6.11668 4.72561 6.02554 4.87511C5.94091 5.02461 5.81723 5.18061 5.66099 5.33661L5.16625 5.85011C5.09464 5.92161 5.06209 6.00611 5.06209 6.11011C5.06209 6.16211 5.0686 6.20761 5.08162 6.25961C5.10115 6.31161 5.12068 6.35061 5.1337 6.38961C5.25088 6.60411 5.45268 6.88361 5.73911 7.22161C6.03205 7.55961 6.34452 7.90411 6.68302 8.24861C7.03455 8.59311 7.37306 8.91161 7.71808 9.20411C8.05658 9.49011 8.3365 9.68511 8.55784 9.80211C8.59039 9.81511 8.62944 9.83461 8.67501 9.85411C8.72709 9.87361 8.77917 9.88011 8.83776 9.88011C8.94842 9.88011 9.03305 9.84111 9.10466 9.76961L9.5994 9.28211C9.76214 9.11961 9.91838 8.99611 10.0681 8.91811C10.2178 8.82711 10.3676 8.78161 10.5303 8.78161C10.654 8.78161 10.7842 8.80761 10.9274 8.86611C11.0706 8.92461 11.2203 9.00911 11.3831 9.11961L13.5378 10.6471C13.7071 10.7641 13.8242 10.9006 13.8958 11.0631C13.9609 11.2256 14 11.3881 14 11.5701Z" stroke="#27373D" stroke-miterlimit="10"/>
</svg>
