<svg width="14" height="14" viewBox="0 0 14 14" fill="none" xmlns="http://www.w3.org/2000/svg">
<path d="M12.5562 3.08698C10.3917 2.87248 8.21416 2.76198 6.04317 2.76198C4.75617 2.76198 3.46917 2.82698 2.18217 2.95698L0.856171 3.08698" stroke="#292D32" stroke-linecap="round" stroke-linejoin="round"/>
<path d="M4.43117 2.4305L4.57417 1.579C4.67817 0.9615 4.75617 0.5 5.85467 0.5H7.55767C8.65616 0.5 8.74066 0.9875 8.83816 1.5855L8.98116 2.4305" stroke="#292D32" stroke-linecap="round" stroke-linejoin="round"/>
<path d="M11.1587 5.14101L10.7362 11.6865C10.6647 12.707 10.6062 13.5 8.79269 13.5H4.61969C2.80619 13.5 2.74769 12.707 2.67619 11.6865L2.25369 5.14101" stroke="#292D32" stroke-linecap="round" stroke-linejoin="round"/>
<path d="M5.62068 9.92499H7.78518" stroke="#292D32" stroke-linecap="round" stroke-linejoin="round"/>
<path d="M5.08116 7.325H8.33116" stroke="#292D32" stroke-linecap="round" stroke-linejoin="round"/>
</svg>
