<svg width="15" height="15" viewBox="0 0 15 15" fill="none" xmlns="http://www.w3.org/2000/svg">
<path d="M13.6321 3.84678V5.37526C13.6321 6.37319 13.0005 7.0048 12.0026 7.0048H9.84247V2.58988C9.84247 1.8888 10.4172 1.32036 11.1183 1.32036C11.8068 1.32667 12.4384 1.60458 12.8931 2.05933C13.3479 2.52041 13.6321 3.15201 13.6321 3.84678Z" stroke="#292D32" stroke-miterlimit="10" stroke-linecap="round" stroke-linejoin="round"/>
<path d="M1 4.47838V13.3208C1 13.8451 1.59371 14.1419 2.01057 13.8261L3.09061 13.0177C3.34325 12.8282 3.69695 12.8535 3.92433 13.0808L4.97279 14.1356C5.21912 14.3819 5.62334 14.3819 5.86967 14.1356L6.93077 13.0745C7.15183 12.8535 7.50553 12.8282 7.75185 13.0177L8.8319 13.8261C9.24875 14.1356 9.84246 13.8388 9.84246 13.3208V2.58357C9.84246 1.8888 10.4109 1.32036 11.1057 1.32036H4.15802H3.52642C1.6316 1.32036 1 2.45093 1 3.84678V4.47838Z" stroke="#292D32" stroke-miterlimit="10" stroke-linecap="round" stroke-linejoin="round"/>
<path d="M5.42126 8.27432H7.31608" stroke="#292D32" stroke-linecap="round" stroke-linejoin="round"/>
<path d="M5.42126 5.74791H7.31608" stroke="#292D32" stroke-linecap="round" stroke-linejoin="round"/>
<path d="M3.52362 8.26801H3.52929" stroke="#292D32" stroke-linecap="round" stroke-linejoin="round"/>
<path d="M3.52362 5.74158H3.52929" stroke="#292D32" stroke-linecap="round" stroke-linejoin="round"/>
</svg>
