<svg width="18" height="15" viewBox="0 0 18 15" fill="none" xmlns="http://www.w3.org/2000/svg">
<path d="M14.4908 4.37459V8.32446C14.4908 10.6867 13.141 11.6991 11.1162 11.6991H4.37462C4.02949 11.6991 3.69969 11.6684 3.39291 11.5994C3.20117 11.5687 3.01711 11.515 2.84838 11.4537C1.69794 11.0242 1 10.0271 1 8.32446V4.37459C1 2.01236 2.34984 1 4.37462 1H11.1162C12.8342 1 14.069 1.72861 14.3988 3.39291C14.4525 3.69969 14.4908 4.01412 14.4908 4.37459Z" stroke="#27373D" stroke-miterlimit="10" stroke-linecap="round" stroke-linejoin="round"/>
<path d="M16.7925 6.67552V10.6254C16.7925 12.9876 15.4427 14 13.4179 14H6.67633C6.10877 14 5.59492 13.9233 5.15008 13.7546C4.2374 13.4171 3.61616 12.7192 3.39374 11.5994C3.70052 11.6685 4.03031 11.6991 4.37545 11.6991H11.117C13.1418 11.6991 14.4916 10.6867 14.4916 8.32451V4.37464C14.4916 4.01417 14.461 3.69207 14.3996 3.39296C15.8568 3.69974 16.7925 4.72745 16.7925 6.67552Z" stroke="#27373D" stroke-miterlimit="10" stroke-linecap="round" stroke-linejoin="round"/>
<path d="M7.7403 8.37812C8.85855 8.37812 9.76509 7.47159 9.76509 6.35334C9.76509 5.23509 8.85855 4.32855 7.7403 4.32855C6.62205 4.32855 5.71552 5.23509 5.71552 6.35334C5.71552 7.47159 6.62205 8.37812 7.7403 8.37812Z" stroke="#27373D" stroke-miterlimit="10" stroke-linecap="round" stroke-linejoin="round"/>
<path d="M3.35461 4.66611V8.04075" stroke="#27373D" stroke-miterlimit="10" stroke-linecap="round" stroke-linejoin="round"/>
<path d="M12.1299 4.66634V8.04098" stroke="#27373D" stroke-miterlimit="10" stroke-linecap="round" stroke-linejoin="round"/>
</svg>
